<svg id="older.svg" xmlns="http://www.w3.org/2000/svg" viewBox="0 0 46.03 46.02"><defs><style>.cls-1{fill:#e3e3dd;fill-opacity:0;stroke:#3d3935;stroke-linejoin:round;opacity:0.3;}.cls-1,.cls-2{isolation:isolate;}.cls-2{fill:#cacaca;opacity:0.6;}</style></defs><title>older</title><path id="Shape_34_copy_16" data-name="Shape 34 copy 16" class="cls-1" d="M23.4.51C13.22.64.89,6.55.49,22.37S11.07,45.65,24.2,45.52a1,1,0,0,1-.24,0c12.88-.62,22-7.66,21.53-23.88C45.11,8.16,34,1.09,23.31.54,22.76.51,24,.5,23.4.51Z" transform="translate(0.02 -0.01)"/><path class="cls-2" d="M25.72,17.58c-.42-.54.32-1,.74-.49a69.7,69.7,0,0,0,6.06,5.06c.33.23.68.57.35,1-1.47,1-5.16,4.47-6.41,5.63-.5.38-1.18-.1-.68-.56,3.55-3.32,6.07-5.64,6.48-5.4a50.43,50.43,0,0,1-6.54-5.2l6.65,4.82c-6.65-.77-10.23.47-16.88.47-.66,0-.66.78,0,.85,6.65,0,10.31-1.23,16.88-.53.66.07.66-.7,0-.79" transform="translate(0.02 -0.01)"/></svg>